<?xml version="1.0" encoding="utf-8"?>
<!-- Generator: Adobe Illustrator 25.2.3, SVG Export Plug-In . SVG Version: 6.00 Build 0)  -->
<svg version="1.1" id="Layer_1" xmlns="http://www.w3.org/2000/svg" xmlns:xlink="http://www.w3.org/1999/xlink" x="0px" y="0px"
	 viewBox="0 0 17.9 17.9" style="enable-background:new 0 0 17.9 17.9;" xml:space="preserve">
<style type="text/css">
	.st0{fill:#E5661D;}
</style>
<path class="st0" d="M3.7,8.5c0-0.4,0.3-0.8,0.8-0.8c0,0,0,0,0,0h1.3c0.4,0,0.8,0.3,0.8,0.8l0,0v4.8c0.1,0,0.3-0.1,0.5-0.1
	c0.3-0.1,0.5-0.3,0.5-0.6V6.6c0-0.4,0.3-0.8,0.8-0.8l0,0h1.3c0.4,0,0.8,0.3,0.8,0.8l0,0v5.5c0,0,0.3-0.1,0.6-0.3
	c0.2-0.1,0.4-0.3,0.4-0.6V4.7c0-0.4,0.3-0.8,0.8-0.8l0,0h1.3c0.4,0,0.8,0.3,0.8,0.8v5.4c1.2-0.8,2.2-1.8,3.1-2.9
	c0.3-0.3,0.3-0.8,0.2-1.2C15.8,1.3,10.7-1.1,6,0.5C1.3,2.1-1.1,7.2,0.5,11.9c0.2,0.5,0.4,1,0.7,1.5c0.2,0.4,0.6,0.6,1.1,0.6
	c0.2,0,0.5-0.1,0.9-0.1c0.3,0,0.6-0.3,0.6-0.6L3.7,8.5"/>
<path class="st0" d="M3.7,16.1c4,2.9,9.6,2,12.5-2c1.1-1.5,1.7-3.4,1.7-5.3c0-0.2,0-0.4,0-0.6C14.6,13.2,8.6,15.4,3.7,16.1"/>
</svg>
