<svg xmlns="http://www.w3.org/2000/svg" width="17.885" height="17.852" viewBox="0 0 17.885 17.852"><path d="M223.094,222a.758.758,0,0,1,.762-.758l1.263,0a.759.759,0,0,1,.759.759v4.774c.142-.042.324-.087.524-.134a.632.632,0,0,0,.488-.615v-5.922a.759.759,0,0,1,.759-.759h1.266a.759.759,0,0,1,.759.759v5.5s.317-.128.625-.258a.634.634,0,0,0,.387-.583v-6.552a.759.759,0,0,1,.759-.759h1.265a.759.759,0,0,1,.758.759v5.4a14.836,14.836,0,0,0,3.09-2.9,1.274,1.274,0,0,0,.194-1.189,8.935,8.935,0,1,0-16.187,7.383,1.13,1.13,0,0,0,1.078.558c.239-.021.537-.051.891-.092a.632.632,0,0,0,.561-.627V222" transform="translate(-219.377 -213.516)" fill="#333"/><path d="M244.417,277.689a8.938,8.938,0,0,0,14.2-7.229c0-.206-.01-.409-.023-.612-3.266,4.871-9.3,7.148-14.172,7.841" transform="translate(-240.727 -261.547)" fill="#333"/></svg>