<svg xmlns="http://www.w3.org/2000/svg" xmlns:xlink="http://www.w3.org/1999/xlink" width="300" height="64" viewBox="0 0 300 64"><defs><clipPath id="b"><rect width="300" height="64"/></clipPath></defs><g id="a" clip-path="url(#b)"><g transform="translate(54 11)"><path d="M7.141,6.586,18.5,0,29.859,6.586,25.683,9.02,18.5,4.866,11.317,9.02Zm22.718,8.306L25.683,12.46,18.5,16.613,11.317,12.46,7.141,14.893v4.866l7.183,4.153v8.306L18.5,34.652l4.176-2.433V23.912l7.183-4.153Zm0,13.173V23.2l-4.176,2.433V30.5Zm2.965,1.72-7.183,4.153V38.8L37,32.218V19.046l-4.176,2.433ZM28.648,10.74l4.176,2.433v4.866L37,15.606V10.74L32.824,8.306ZM14.324,35.7v4.866L18.5,43l4.176-2.433V35.7L18.5,38.134ZM7.141,28.065,11.317,30.5V25.632L7.141,23.2ZM14.324,10.74,18.5,13.173l4.176-2.433L18.5,8.306ZM4.176,13.173,8.352,10.74,4.176,8.306,0,10.74v4.866l4.176,2.433Zm0,8.306L0,19.046V32.218L11.359,38.8V33.938L4.176,29.785Z" fill="#f0b90b"/><path d="M50,11.826c0-4.64,3.076-8.233,8.325-8.233a9.081,9.081,0,0,1,6.66,2.859L62.256,8.7a5.594,5.594,0,0,0-3.938-1.584c-2.335,0-4.278,1.735-4.278,4.707a4.381,4.381,0,0,0,4.442,4.705,5.86,5.86,0,0,0,2.845-.7V13.94H58.141v-3.1H65.03v7.184a11.5,11.5,0,0,1-6.542,1.958C53.748,19.977,50,17.027,50,11.826ZM67.412,8.785H71.02v1.283h.047a4.436,4.436,0,0,1,3.4-1.486c2.335,0,4.046,1.127,4.046,4.62V19.8h-3.6V14.054c0-1.825-.62-2.342-1.806-2.342-1.246,0-2.08.832-2.08,2.542V19.8h-3.61Zm12.9,5.517c0-3.356,2.476-5.721,6.128-5.721,3.563,0,6.106,2.321,6.106,5.721S90.005,20,86.443,20C82.791,20,80.315,17.635,80.315,14.3Zm8.581,0a2.467,2.467,0,1,0-4.927,0,2.467,2.467,0,1,0,4.927,0Zm4.718,4.074L95.3,16.1a4.408,4.408,0,0,0,2.96,1.237c.719,0,1.088-.246,1.088-.653,0-.359-.347-.584-1.757-1-1.9-.564-3.562-1.465-3.562-3.58,0-2.231,1.875-3.513,4.231-3.513a6.777,6.777,0,0,1,4.278,1.374l-1.711,2.454A3.831,3.831,0,0,0,98.3,11.27c-.411,0-.9.18-.9.6,0,.338.413.587,1.55.968,2.5.833,3.862,1.465,3.862,3.625,0,2.05-1.5,3.536-4.6,3.536A6.87,6.87,0,0,1,93.613,18.376ZM104.432,5.385a2.171,2.171,0,0,1,4.326,0,2.168,2.168,0,0,1-4.326,0Zm.349,3.4h3.605V19.8h-3.605Zm5.341,9.591L111.81,16.1a4.4,4.4,0,0,0,2.961,1.237c.715,0,1.087-.246,1.087-.653,0-.359-.349-.584-1.757-1-1.9-.564-3.563-1.465-3.563-3.58,0-2.231,1.874-3.513,4.233-3.513a6.786,6.786,0,0,1,4.279,1.374l-1.713,2.454a3.828,3.828,0,0,0-2.522-1.148c-.411,0-.9.18-.9.6,0,.338.413.587,1.55.968,2.5.833,3.86,1.465,3.86,3.625,0,2.05-1.5,3.536-4.6,3.536A6.875,6.875,0,0,1,110.122,18.376Zm15.848-.923,2.268-2.68a5.587,5.587,0,0,0,3.886,1.893c1.3,0,1.857-.631,1.857-1.351,0-.878-.576-1.26-2.426-1.868-2.5-.833-5-1.983-5-5.134,0-2.657,2.337-4.661,5.389-4.707a8.588,8.588,0,0,1,5.688,2.073l-2.193,2.747a5.692,5.692,0,0,0-3.352-1.509c-.923,0-1.526.472-1.526,1.238s.578,1.169,2.358,1.845l.286.107c2.747,1.026,4.825,1.8,4.825,4.779,0,3.761-3.3,5.111-6.036,5.111A8.463,8.463,0,0,1,125.97,17.453ZM139.351,14.3c0-3.379,2.24-5.721,5.156-5.721a4.106,4.106,0,0,1,3.121,1.374l.045-.023V8.785h3.63V19.8h-3.444V18.647l-.047-.023A3.737,3.737,0,0,1,144.69,20C141.591,20,139.351,17.7,139.351,14.3Zm8.488,0a2.443,2.443,0,0,0-2.384-2.611,2.417,2.417,0,0,0-2.427,2.611,2.373,2.373,0,0,0,2.427,2.588,2.411,2.411,0,0,0,2.378-2.588Zm6.288-2.68H153.04V8.785h1.087V7.051c0-2.724,1.455-4.051,3.712-4.051a5.753,5.753,0,0,1,3.052.853l-.67,2.545a3.713,3.713,0,0,0-1.41-.4c-.649,0-1.065.317-1.065,1.194V8.8H159.9v2.837h-2.139v8.171h-3.631Zm17.806,3.6h-7.7a2.471,2.471,0,0,0,2.706,1.914,3.6,3.6,0,0,0,2.636-1.2l2.082,2.073c-.95,1.148-2.522,1.98-5.087,1.98a5.573,5.573,0,0,1-5.921-5.718,5.531,5.531,0,0,1,5.828-5.7A5.364,5.364,0,0,1,172,14.16,9.657,9.657,0,0,1,171.933,15.224Zm-7.678-2.1h4.231a2.031,2.031,0,0,0-2.063-1.757A2.125,2.125,0,0,0,164.255,13.125ZM72.3,28.55a.706.706,0,0,0,.52.21.694.694,0,0,0,.51-.21.749.749,0,0,0,0-1.04.694.694,0,0,0-.51-.21.735.735,0,0,0-.52,1.25ZM73.384,35V29.49h-1.14V35Zm-20.7-5.34a2.128,2.128,0,0,0-.79.65V27.6H50.75V35h1.14v-.8a2.192,2.192,0,0,0,.78.64,2.515,2.515,0,0,0,1.14.25,2.466,2.466,0,0,0,1.31-.36,2.573,2.573,0,0,0,.94-1.02,3.206,3.206,0,0,0,.34-1.49,3.086,3.086,0,0,0-.34-1.47,2.455,2.455,0,0,0-.93-1,2.538,2.538,0,0,0-1.32-.35A2.452,2.452,0,0,0,52.68,29.66ZM55,31.24a1.907,1.907,0,0,1,.24.98,2.018,2.018,0,0,1-.24,1,1.647,1.647,0,0,1-.62.66,1.609,1.609,0,0,1-.82.22,1.644,1.644,0,0,1-.82-.22,1.686,1.686,0,0,1-.62-.64,2.089,2.089,0,0,1-.23-1,2.031,2.031,0,0,1,.23-.99,1.685,1.685,0,0,1,.62-.64,1.644,1.644,0,0,1,.82-.22,1.609,1.609,0,0,1,.82.22A1.527,1.527,0,0,1,55,31.24Zm4.107,6.35,3.38-8.1h-1.18l-1.61,4.2-1.55-4.2h-1.27l2.17,5.42-1.12,2.68Zm10.558-6.16a1.537,1.537,0,0,1,.95.59,1.78,1.78,0,0,1,.11,2.07,1.875,1.875,0,0,1-.79.67,2.861,2.861,0,0,1-1.21.24h-2.78V28.05H68.6a2.845,2.845,0,0,1,1.22.24,1.777,1.777,0,0,1,.77.65,1.616,1.616,0,0,1,.26.9,1.55,1.55,0,0,1-.32,1A1.863,1.863,0,0,1,69.665,31.43Zm-2.58-.46H68.5a1.352,1.352,0,0,0,.87-.25.9.9,0,0,0,.32-.74.888.888,0,0,0-.32-.73,1.283,1.283,0,0,0-.87-.27h-1.41Zm1.54,3.1a1.363,1.363,0,0,0,.91-.28.968.968,0,0,0,.33-.78,1.012,1.012,0,0,0-.35-.81,1.38,1.38,0,0,0-.93-.3h-1.5v2.17Zm9.036-4.67a2.441,2.441,0,0,1,1.16.27,1.914,1.914,0,0,1,.81.8,2.632,2.632,0,0,1,.29,1.28V35h-1.13V31.92a1.581,1.581,0,0,0-.37-1.13,1.308,1.308,0,0,0-1.01-.4,1.34,1.34,0,0,0-1.02.4,1.581,1.581,0,0,0-.37,1.13V35h-1.14V29.49h1.14v.63a1.9,1.9,0,0,1,.71-.53A2.32,2.32,0,0,1,77.661,29.4Zm3.674,1.35A3.086,3.086,0,0,0,81,32.22a3.206,3.206,0,0,0,.34,1.49,2.672,2.672,0,0,0,.94,1.02,2.573,2.573,0,0,0,2.44.1,2.264,2.264,0,0,0,.79-.65V35h1.15V29.49H85.5v.8a2.242,2.242,0,0,0-.78-.63,2.338,2.338,0,0,0-1.13-.26,2.539,2.539,0,0,0-2.26,1.35Zm3.93.5a1.962,1.962,0,0,1,.24.99,2.018,2.018,0,0,1-.24,1,1.6,1.6,0,0,1-1.43.86,1.644,1.644,0,0,1-.82-.22,1.744,1.744,0,0,1-.62-.66,2.089,2.089,0,0,1-.23-1,1.973,1.973,0,0,1,.23-.98,1.626,1.626,0,0,1,2.87.01Zm5.667-1.85a2.441,2.441,0,0,1,1.16.27,1.913,1.913,0,0,1,.81.8,2.631,2.631,0,0,1,.29,1.28V35h-1.13V31.92a1.58,1.58,0,0,0-.37-1.13,1.308,1.308,0,0,0-1.01-.4,1.341,1.341,0,0,0-1.02.4,1.581,1.581,0,0,0-.37,1.13V35h-1.14V29.49h1.14v.63a1.9,1.9,0,0,1,.71-.53A2.321,2.321,0,0,1,90.932,29.4Zm3.674,1.35a3.129,3.129,0,0,0-.34,1.49,3.189,3.189,0,0,0,.34,1.5,2.566,2.566,0,0,0,.96,1,2.763,2.763,0,0,0,1.4.35,2.675,2.675,0,0,0,1.64-.49,2.487,2.487,0,0,0,.9-1.34h-1.23a1.265,1.265,0,0,1-1.31.87,1.389,1.389,0,0,1-1.12-.5,2.133,2.133,0,0,1-.41-1.39,2.091,2.091,0,0,1,.41-1.38,1.389,1.389,0,0,1,1.12-.5,1.418,1.418,0,0,1,.83.23,1.3,1.3,0,0,1,.48.64h1.23a2.307,2.307,0,0,0-.89-1.35,2.7,2.7,0,0,0-1.65-.48,2.763,2.763,0,0,0-1.4.35A2.479,2.479,0,0,0,94.606,30.75Zm11.087,1.36a3.646,3.646,0,0,1-.04.56h-4.21a1.525,1.525,0,0,0,.49,1.06,1.545,1.545,0,0,0,1.08.4,1.335,1.335,0,0,0,1.3-.77h1.23a2.5,2.5,0,0,1-.91,1.25,2.655,2.655,0,0,1-1.62.48,2.873,2.873,0,0,1-1.42-.35,2.611,2.611,0,0,1-.98-1,3.412,3.412,0,0,1-.01-2.99,2.454,2.454,0,0,1,.97-1,2.915,2.915,0,0,1,1.44-.35,2.807,2.807,0,0,1,1.39.34,2.4,2.4,0,0,1,.95.96A2.855,2.855,0,0,1,105.693,32.11Zm-1.19-.36a1.3,1.3,0,0,0-.45-1.01,1.611,1.611,0,0,0-1.09-.38,1.452,1.452,0,0,0-1.01.38,1.545,1.545,0,0,0-.5,1.01Zm5.939,3.08a3.167,3.167,0,0,0,1.26.24,2.747,2.747,0,0,0,1.28-.28,2.047,2.047,0,0,0,.83-.76,1.876,1.876,0,0,0,.29-1,1.639,1.639,0,0,0-.31-1.05,1.814,1.814,0,0,0-.74-.59,8.309,8.309,0,0,0-1.12-.38,7.652,7.652,0,0,1-.82-.26,1.464,1.464,0,0,1-.5-.32.759.759,0,0,1-.19-.53.87.87,0,0,1,.31-.72,1.234,1.234,0,0,1,.8-.25,1.331,1.331,0,0,1,.87.27.913.913,0,0,1,.36.65h1.26a1.843,1.843,0,0,0-.72-1.38,2.568,2.568,0,0,0-1.65-.51,3.053,3.053,0,0,0-1.25.24,1.916,1.916,0,0,0-.84.69,1.849,1.849,0,0,0-.3,1.05,1.662,1.662,0,0,0,.3,1.04,1.879,1.879,0,0,0,.72.58,8.782,8.782,0,0,0,1.11.36,7.322,7.322,0,0,1,.84.26,1.314,1.314,0,0,1,.51.34.792.792,0,0,1,.21.57.941.941,0,0,1-.33.74,1.38,1.38,0,0,1-.92.28,1.277,1.277,0,0,1-.89-.29,1.111,1.111,0,0,1-.35-.74h-1.22a1.767,1.767,0,0,0,.32,1.05A2.1,2.1,0,0,0,110.442,34.83Zm11.675-5.43a2.439,2.439,0,0,1,1.16.27,1.909,1.909,0,0,1,.81.8,2.56,2.56,0,0,1,.3,1.28V35h-1.13V31.92a1.579,1.579,0,0,0-.37-1.13,1.307,1.307,0,0,0-1.01-.4,1.342,1.342,0,0,0-1.02.4,1.584,1.584,0,0,0-.37,1.13V35h-1.13V31.92a1.579,1.579,0,0,0-.37-1.13,1.307,1.307,0,0,0-1.01-.4,1.342,1.342,0,0,0-1.02.4,1.584,1.584,0,0,0-.37,1.13V35h-1.14V29.49h1.14v.63a1.9,1.9,0,0,1,.71-.53,2.254,2.254,0,0,1,.92-.19,2.447,2.447,0,0,1,1.18.28,1.909,1.909,0,0,1,.8.81,1.823,1.823,0,0,1,.78-.79A2.28,2.28,0,0,1,122.117,29.4Zm3.681,1.35a3.082,3.082,0,0,0-.34,1.47,3.2,3.2,0,0,0,.34,1.49,2.672,2.672,0,0,0,.94,1.02,2.573,2.573,0,0,0,2.44.1,2.264,2.264,0,0,0,.79-.65V35h1.15V29.49h-1.15v.8a2.236,2.236,0,0,0-.78-.63,2.339,2.339,0,0,0-1.13-.26,2.539,2.539,0,0,0-2.26,1.35Zm3.93.5a1.962,1.962,0,0,1,.24.99,2.018,2.018,0,0,1-.24,1,1.6,1.6,0,0,1-1.43.86,1.644,1.644,0,0,1-.82-.22,1.746,1.746,0,0,1-.62-.66,2.093,2.093,0,0,1-.23-1,1.976,1.976,0,0,1,.23-.98,1.626,1.626,0,0,1,2.87.01Zm4.027-.96a1.768,1.768,0,0,1,.66-.65,1.962,1.962,0,0,1,.99-.24v1.18h-.29a1.409,1.409,0,0,0-1.02.34,1.645,1.645,0,0,0-.34,1.18V35h-1.14V29.49h1.14Zm4.028,3.18V30.42h1.34v-.93h-1.34V28.12h-1.15v1.37h-.65v.93h.65v3.05a1.485,1.485,0,0,0,.41,1.17,1.735,1.735,0,0,0,1.18.36h.9v-.95h-.7a.763.763,0,0,1-.5-.13A.618.618,0,0,1,137.783,33.47Zm4.608-1.96a3.582,3.582,0,0,1,.47-1.83,3.392,3.392,0,0,1,1.29-1.26,3.76,3.76,0,0,1,3.76.09,3.069,3.069,0,0,1,1.26,1.54H147.8a1.837,1.837,0,0,0-.75-.82,2.226,2.226,0,0,0-1.11-.27,2.425,2.425,0,0,0-1.23.31,2.192,2.192,0,0,0-.85.89,3.188,3.188,0,0,0,0,2.7,2.261,2.261,0,0,0,.85.9,2.425,2.425,0,0,0,1.23.31,2.226,2.226,0,0,0,1.11-.27,1.837,1.837,0,0,0,.75-.82h1.37a3.069,3.069,0,0,1-1.26,1.54,3.826,3.826,0,0,1-3.76.09,3.467,3.467,0,0,1-1.29-1.27A3.582,3.582,0,0,1,142.391,31.51Zm12.085-1.84a2.283,2.283,0,0,0-1.12-.27,2.494,2.494,0,0,0-.98.19,1.92,1.92,0,0,0-.73.54V27.6h-1.14V35h1.14V31.92a1.579,1.579,0,0,1,.37-1.13,1.339,1.339,0,0,1,1.02-.4,1.308,1.308,0,0,1,1.01.4,1.579,1.579,0,0,1,.37,1.13V35h1.13V31.75a2.635,2.635,0,0,0-.29-1.28A1.887,1.887,0,0,0,154.476,29.67Zm2.144,2.55a3.082,3.082,0,0,1,.34-1.47,2.539,2.539,0,0,1,2.26-1.35,2.339,2.339,0,0,1,1.13.26,2.236,2.236,0,0,1,.78.63v-.8h1.15V35h-1.15v-.82a2.264,2.264,0,0,1-.79.65,2.573,2.573,0,0,1-2.44-.1,2.672,2.672,0,0,1-.94-1.02A3.2,3.2,0,0,1,156.62,32.22Zm4.51.02a1.962,1.962,0,0,0-.24-.99,1.635,1.635,0,0,0-2.87-.01,1.976,1.976,0,0,0-.23.98,2.093,2.093,0,0,0,.23,1,1.746,1.746,0,0,0,.62.66,1.644,1.644,0,0,0,.82.22,1.6,1.6,0,0,0,1.43-.86A2.018,2.018,0,0,0,161.13,32.24Zm2.707-3.69a.707.707,0,0,0,.52.21.694.694,0,0,0,.51-.21.749.749,0,0,0,0-1.04.694.694,0,0,0-.51-.21.735.735,0,0,0-.52,1.25Zm1.08,6.45V29.49h-1.14V35Zm4.277-5.6a2.442,2.442,0,0,1,1.16.27,1.909,1.909,0,0,1,.81.8,2.635,2.635,0,0,1,.29,1.28V35h-1.13V31.92a1.579,1.579,0,0,0-.37-1.13,1.308,1.308,0,0,0-1.01-.4,1.339,1.339,0,0,0-1.02.4,1.579,1.579,0,0,0-.37,1.13V35h-1.14V29.49h1.14v.63a1.9,1.9,0,0,1,.71-.53A2.318,2.318,0,0,1,169.194,29.4ZM28,32a7,7,0,1,1,7,7A7,7,0,0,1,28,32Zm8.875.382h3.248a.344.344,0,1,0,0-.689H36.891a1.978,1.978,0,1,0-.015.689Z" fill="#081728" fill-rule="evenodd"/></g></g></svg>