<svg xmlns="http://www.w3.org/2000/svg" width="31.433" height="17.852" viewBox="0 0 31.433 17.852"><g transform="translate(0 0)"><path d="M312.51,288.826a8.865,8.865,0,1,1-8.865-8.926,8.9,8.9,0,0,1,8.865,8.926" transform="translate(-294.78 -279.9)" fill="#333"/><path d="M920.865,305.663c0,4.64-1.984,8.4-4.433,8.4S912,310.3,912,305.663s1.984-8.4,4.432-8.4,4.433,3.762,4.433,8.4" transform="translate(-893.41 -296.737)" fill="#333"/><path d="M1238.018,333.848c0,4.156-.7,7.528-1.559,7.528s-1.559-3.371-1.559-7.528.7-7.528,1.559-7.528,1.559,3.37,1.559,7.528" transform="translate(-1206.585 -324.922)" fill="#333"/></g></svg>