<svg xmlns="http://www.w3.org/2000/svg" width="59" height="59" viewBox="0 0 59 59"><g transform="translate(-1195 -772)"><circle cx="29.5" cy="29.5" r="29.5" transform="translate(1195 772)" fill="#fefae0"/><circle cx="24.5" cy="24.5" r="24.5" transform="translate(1200 777)" fill="#e5661d"/><g transform="translate(1209.346 791.525)"><path d="M98,150.676a1.575,1.575,0,0,0,1.229-.615l3.279-3.188-4.09-2.466" transform="translate(-87.943 -129.607)" fill="#fefae0"/><path d="M59.394,86.981,69.3,94.3c1.131.624,1.947.3,2.229-1.05l4.034-19.008c.413-1.656-.631-2.407-1.713-1.916L50.167,81.462c-1.617.649-1.607,1.551-.295,1.952l6.078,1.9,14.072-8.878c.664-.4,1.274-.186.774.258" transform="translate(-48.919 -72.18)" fill="#fefae0"/></g></g></svg>