<svg xmlns="http://www.w3.org/2000/svg" width="21.97" height="17.852" viewBox="0 0 21.97 17.852"><path d="M20.721,5.942c.013.194.013.387.013.583A12.738,12.738,0,0,1,7.909,19.349v0A12.76,12.76,0,0,1,1,17.325a9.168,9.168,0,0,0,1.073.065,9.051,9.051,0,0,0,5.6-1.933,4.513,4.513,0,0,1-4.211-3.13,4.493,4.493,0,0,0,2.035-.078A4.508,4.508,0,0,1,1.879,7.831V7.774a4.479,4.479,0,0,0,2.046.564A4.513,4.513,0,0,1,2.53,2.32a12.793,12.793,0,0,0,9.29,4.709A4.512,4.512,0,0,1,19.5,2.918a9.045,9.045,0,0,0,2.862-1.094,4.524,4.524,0,0,1-1.981,2.493,8.964,8.964,0,0,0,2.588-.71A9.157,9.157,0,0,1,20.721,5.942Z" transform="translate(-1 -1.497)" fill="#333"/></svg>