<?xml version="1.0" encoding="utf-8"?>
<!-- Generator: Adobe Illustrator 25.2.3, SVG Export Plug-In . SVG Version: 6.00 Build 0)  -->
<svg version="1.1" id="Layer_1" xmlns="http://www.w3.org/2000/svg" xmlns:xlink="http://www.w3.org/1999/xlink" x="0px" y="0px"
	 viewBox="0 0 22 17.9" style="enable-background:new 0 0 22 17.9;" xml:space="preserve">
<style type="text/css">
	.st0{fill:#E5661D;}
</style>
<path class="st0" d="M19.7,4.4c0,0.2,0,0.4,0,0.6c0,7-5.6,12.8-12.7,12.8c-0.1,0-0.1,0-0.2,0l0,0c-2.4,0-4.8-0.7-6.9-2
	c0.4,0,0.7,0.1,1.1,0.1c2,0,4-0.7,5.6-1.9c-1.9,0-3.6-1.3-4.2-3.1c0.7,0.1,1.4,0.1,2-0.1c-2.1-0.4-3.6-2.3-3.6-4.4V6.3
	c0.6,0.3,1.3,0.5,2,0.6c-2-1.3-2.6-4-1.4-6c2.3,2.8,5.7,4.5,9.3,4.7c-0.6-2.4,1-4.9,3.4-5.4c1.6-0.4,3.2,0.1,4.3,1.3
	c1-0.2,2-0.6,2.9-1.1c-0.3,1-1,1.9-2,2.5c0.9-0.1,1.8-0.3,2.6-0.7C21.4,3,20.6,3.8,19.7,4.4z"/>
</svg>
