<svg xmlns="http://www.w3.org/2000/svg" width="30.394" height="30.337" viewBox="0 0 30.394 30.337"><path d="M225.693,227.935a1.288,1.288,0,0,1,1.294-1.288l2.145.007a1.29,1.29,0,0,1,1.29,1.29v8.113c.242-.072.551-.148.891-.228a1.075,1.075,0,0,0,.829-1.046V224.72a1.29,1.29,0,0,1,1.29-1.29h2.152a1.29,1.29,0,0,1,1.29,1.29v9.34s.538-.218,1.062-.439a1.077,1.077,0,0,0,.657-.991V221.5a1.29,1.29,0,0,1,1.29-1.29h2.15a1.29,1.29,0,0,1,1.289,1.29v9.169a25.211,25.211,0,0,0,5.252-4.929,2.165,2.165,0,0,0,.33-2.021,15.184,15.184,0,1,0-27.508,12.547,1.92,1.92,0,0,0,1.832.949c.407-.036.913-.086,1.515-.157a1.074,1.074,0,0,0,.953-1.066v-8.053" transform="translate(-219.377 -213.516)" fill="#333"/><path d="M244.417,283.173a15.189,15.189,0,0,0,24.124-12.285c0-.351-.016-.7-.04-1.04-5.55,8.277-15.8,12.147-24.084,13.325" transform="translate(-238.147 -255.742)" fill="#333"/></svg>