<svg xmlns="http://www.w3.org/2000/svg" xmlns:xlink="http://www.w3.org/1999/xlink" width="300" height="120" viewBox="0 0 300 120"><defs><clipPath id="b"><rect width="300" height="120"/></clipPath></defs><g id="a" clip-path="url(#b)"><g transform="translate(-233 -2354)"><rect width="227" height="86" rx="43" transform="translate(270 2371)" fill="#e3d6b1"/><path d="M7.552-9.76a.234.234,0,0,0,.256-.256v-2.72a.252.252,0,0,0-.256-.256H4.832V-19.2H7.648a.227.227,0,0,0,.256-.224v-2.72a.252.252,0,0,0-.256-.256H1.7a.236.236,0,0,0-.256.256V-.256A.25.25,0,0,0,1.7,0h2.88c.16,0,.256-.064.256-.256v-9.5ZM12.96-3.232V-22.144A.236.236,0,0,0,12.7-22.4H9.824a.236.236,0,0,0-.256.256V-2.912c0,1.92.736,3.072,3.3,3.072H16.1c2.5,0,3.2-1.152,3.2-3.136V-22.144a.228.228,0,0,0-.224-.256H16.16a.252.252,0,0,0-.256.256V-3.232c0,.128-.032.16-.16.16H13.12C12.992-3.072,12.96-3.1,12.96-3.232ZM29.12-19.2a.227.227,0,0,0,.256-.224v-2.72a.252.252,0,0,0-.256-.256H20.832a.236.236,0,0,0-.256.256v2.72a.227.227,0,0,0,.256.224h2.432V-.256A.274.274,0,0,0,23.52,0h2.912c.128,0,.224-.064.224-.256V-19.2ZM34.048-3.232V-22.144a.236.236,0,0,0-.256-.256h-2.88a.236.236,0,0,0-.256.256V-2.912c0,1.92.736,3.072,3.3,3.072h3.232c2.5,0,3.2-1.152,3.2-3.136V-22.144a.228.228,0,0,0-.224-.256H37.248a.252.252,0,0,0-.256.256V-3.232c0,.128-.032.16-.16.16H34.208C34.08-3.072,34.048-3.1,34.048-3.232ZM52.416,0c.16,0,.288-.064.256-.256L49.856-9.632c1.92-.192,2.5-1.312,2.5-3.1V-19.3c0-1.952-.864-3.1-3.232-3.1H43.36a.236.236,0,0,0-.256.256V-.256A.25.25,0,0,0,43.36,0h2.88c.16,0,.256-.064.256-.256V-9.088L48.96-.256A.25.25,0,0,0,49.216,0ZM48.8-19.168c.128,0,.16.032.16.16v6.016c0,.128-.032.16-.16.16H46.5v-6.336ZM61.152,0a.234.234,0,0,0,.256-.256V-3.008a.247.247,0,0,0-.256-.224H58.336V-9.76h2.816a.234.234,0,0,0,.256-.256v-2.72a.252.252,0,0,0-.256-.256H58.336V-19.2h2.816a.227.227,0,0,0,.256-.224v-2.72a.252.252,0,0,0-.256-.256H55.2a.236.236,0,0,0-.256.256V-.256A.25.25,0,0,0,55.2,0Zm14.08,0c.16,0,.256-.064.256-.256v-2.72a.252.252,0,0,0-.256-.256H72.16V-22.144A.236.236,0,0,0,71.9-22.4h-2.88a.236.236,0,0,0-.256.256V-.256A.25.25,0,0,0,69.024,0Zm4.512.16h3.232c2.5,0,3.2-1.152,3.2-3.136v-16.48c0-1.952-.864-3.1-3.232-3.1H79.68c-2.368,0-3.232,1.152-3.232,3.136V-2.912C76.448-.992,77.184.16,79.744.16Zm3.04-19.328V-3.232c0,.128-.032.16-.16.16H80c-.128,0-.16-.032-.16-.16V-19.168c0-.128.032-.16.16-.16h2.624C82.752-19.328,82.784-19.3,82.784-19.168Zm15.1,7.392H93.664a.228.228,0,0,0-.256.224v2.72a.25.25,0,0,0,.256.256h1.088v5.344c0,.128-.032.16-.16.16H91.968c-.128,0-.16-.032-.16-.16V-19.168c0-.128.032-.16.16-.16h2.624c.128,0,.16.032.16.16v2.688a.227.227,0,0,0,.256.224h2.88c.16,0,.256-.064.256-.224v-2.976c0-1.952-.864-3.1-3.232-3.1H91.648c-2.368,0-3.232,1.152-3.232,3.136V-2.912c0,1.92.736,3.072,3.3,3.072h3.232c2.5,0,3.2-1.152,3.2-3.136v-8.576C98.144-11.712,98.048-11.776,97.888-11.776ZM103.52.16h3.232c2.5,0,3.2-1.152,3.2-3.136v-16.48c0-1.952-.864-3.1-3.232-3.1h-3.264c-2.368,0-3.232,1.152-3.232,3.136V-2.912C100.224-.992,100.96.16,103.52.16Zm3.04-19.328V-3.232c0,.128-.032.16-.16.16h-2.624c-.128,0-.16-.032-.16-.16V-19.168c0-.128.032-.16.16-.16H106.4C106.528-19.328,106.56-19.3,106.56-19.168Z" transform="translate(328 2427)" fill="#333" opacity="0.259"/></g></g></svg>