<svg xmlns="http://www.w3.org/2000/svg" xmlns:xlink="http://www.w3.org/1999/xlink" width="300" height="64" viewBox="0 0 300 64"><defs><clipPath id="b"><rect width="300" height="64"/></clipPath></defs><g id="a" clip-path="url(#b)"><path d="M170.692,24.074a8.482,8.482,0,0,1-8.563-8.694,8.533,8.533,0,0,1,8.683-8.724A8.79,8.79,0,0,1,177.4,9.264l-1.887,2.189a6.65,6.65,0,0,0-4.7-2.1c-3.234,0-5.539,2.638-5.539,5.966s2.335,6.026,5.539,6.026a6.555,6.555,0,0,0,4.82-2.189l1.887,1.919A8.532,8.532,0,0,1,170.692,24.074ZM183.059,16.7V23.8h-2.964V6.955h2.964v7.015h8.023V6.955h2.964V23.8h-2.964V16.7ZM213.927,23.8h-3.113l-1.707-4.077h-7.964L199.406,23.8h-3.025l7.4-16.969H206.5Zm-8.833-13.431-2.873,6.745H208ZM227.041,23.8l-4.131-5.876H219.2V23.8h-2.964V6.955h7.485c3.863,0,6.258,2.039,6.258,5.336a5.043,5.043,0,0,1-4.013,5.126l4.551,6.386Zm-3.5-14.15h-4.311V15.29h4.311c2.126,0,3.473-1.109,3.473-2.848C227.011,10.613,225.723,9.653,223.538,9.653Zm12.815-2.7V23.8h-2.964V6.955ZM247.132,23.8h-2.994V9.713h-5.33V6.985h13.653V9.713h-5.329Zm16.647,0h-2.994V17.178L254.107,6.985h3.473l4.7,7.465,4.76-7.465h3.384l-6.677,10.133V23.8ZM6.946,15.38,3.473,18.857,0,15.38,3.473,11.9ZM15.33,6.955l5.928,5.936,3.473-3.478L15.33,0l-9.4,9.414L9.4,12.891ZM27.186,11.9,23.713,15.38l3.473,3.478,3.473-3.478ZM15.33,23.8,9.4,17.868,5.928,21.346l9.4,9.414,9.4-9.414-3.473-3.478Zm0-4.947L18.8,15.38,15.33,11.9,11.857,15.38Zm36.528.33v-.06c0-2.249-1.2-3.388-3.144-4.137a3.917,3.917,0,0,0,2.216-3.628V11.3c0-2.638-2.126-4.347-5.539-4.347H37.576V23.774H45.57C49.372,23.8,51.857,22.245,51.857,19.187Zm-4.611-7.2c0,1.259-1.018,1.769-2.665,1.769H41.169V10.193h3.653c1.557,0,2.425.63,2.425,1.739Zm.958,6.715c0,1.259-.988,1.829-2.6,1.829H41.2V16.819H45.48c1.886,0,2.725.69,2.725,1.829Zm11.407,5.1V6.985H55.9V23.8Zm19.881,0V6.985H75.84V17.358L67.966,6.985H64.552V23.8h3.653V13.1l8.144,10.7Zm20.48,0L92.757,6.865H89.343L82.128,23.8H85.9l1.527-3.777h7.1L96.05,23.8Zm-6.707-7.045H88.8L91.05,11.3ZM117.607,23.8V6.985h-3.653V17.358L106.08,6.985h-3.413V23.8h3.653V13.1l8.144,10.7Zm19.1-2.728-2.365-2.368a6.062,6.062,0,0,1-4.432,1.979,5,5,0,0,1-4.88-5.276v-.06a4.99,4.99,0,0,1,4.88-5.246,6.3,6.3,0,0,1,4.311,1.889l2.366-2.728a8.671,8.671,0,0,0-6.617-2.608A8.566,8.566,0,0,0,121.2,15.35v.06a8.863,8.863,0,0,0,15.509,5.666ZM152.458,23.8v-3.3h-9.132V16.969h7.935v-3.3h-7.935V10.253h9.012v-3.3H139.674V23.774h12.784Z" transform="translate(15 17)" fill="#333"/></g></svg>