<?xml version="1.0" encoding="utf-8"?>
<!-- Generator: Adobe Illustrator 25.2.3, SVG Export Plug-In . SVG Version: 6.00 Build 0)  -->
<svg version="1.1" id="Layer_1" xmlns="http://www.w3.org/2000/svg" xmlns:xlink="http://www.w3.org/1999/xlink" x="0px" y="0px"
	 viewBox="0 0 31.4 17.9" style="enable-background:new 0 0 31.4 17.9;" xml:space="preserve">
<style type="text/css">
	.st0{fill:#E5661D;}
</style>
<g transform="translate(0 0)">
	<path class="st0" d="M17.7,8.9c0,4.9-4,8.8-8.9,8.8c-4.9,0-8.8-4-8.8-8.9C0,3.9,4,0,8.9,0C13.8,0,17.7,4,17.7,8.9"/>
	<path class="st0" d="M27.5,8.9c0,4.6-2,8.4-4.4,8.4s-4.4-3.8-4.4-8.4s2-8.4,4.4-8.4S27.5,4.3,27.5,8.9"/>
	<path class="st0" d="M31.4,8.9c0,4.2-0.7,7.5-1.6,7.5s-1.6-3.4-1.6-7.5s0.7-7.5,1.6-7.5S31.4,4.8,31.4,8.9"/>
</g>
</svg>
