<svg xmlns="http://www.w3.org/2000/svg" width="50" height="50" viewBox="0 0 50 50"><g transform="translate(-1245 -578)"><circle cx="25" cy="25" r="25" transform="translate(1245 578)" fill="#fefae0"/><g transform="translate(1256.12 589)"><path d="M5.024,4.281A3.617,3.617,0,1,1,12.2,3.617V8.077q.75-.053,1.522-.053.741,0,1.463.049V3.617a3.617,3.617,0,1,1,7.173.664l-.979,5.242c3.359,1.467,5.9,4.014,5.9,7.215v1.937c0,2.632-1.741,4.836-4.176,6.324a18.241,18.241,0,0,1-9.381,2.391A18.24,18.24,0,0,1,4.338,25C1.9,23.511.162,21.307.162,18.675V16.738c0-3.184,2.514-5.722,5.845-7.191Zm15.1,5.931,1.145-6.134a2.511,2.511,0,1,0-4.978-.461V9.292q-.545-.07-1.107-.11-.72-.051-1.463-.052-.773,0-1.522.056-.561.042-1.107.114V3.617a2.511,2.511,0,1,0-4.978.461l1.149,6.154c-3.593,1.335-5.992,3.749-5.992,6.506v1.937c0,4.2,5.574,7.608,12.45,7.608s12.45-3.406,12.45-7.608V16.738C26.168,13.967,23.744,11.542,20.121,10.212Z" fill="#633001" fill-rule="evenodd"/><path d="M26.355,21.492c0,4.2-5.574,7.608-12.45,7.608s-12.45-3.406-12.45-7.608V19.556h24.9Z" transform="translate(-0.186 -2.817)" fill="#fedc90"/><path d="M6.3,4.264A2.511,2.511,0,1,1,11.276,3.8V9.486a20.423,20.423,0,0,1,5.2-.008V3.8a2.511,2.511,0,1,1,4.978.461L20.307,10.4c3.623,1.33,6.048,3.755,6.048,6.527,0,4.2-5.574,7.608-12.45,7.608s-12.45-3.406-12.45-7.608c0-2.757,2.4-5.172,5.992-6.506Z" transform="translate(-0.186 -0.186)" fill="#d1884f" fill-rule="evenodd"/><path d="M11.494,18.56c0,1.146-.619,2.075-1.383,2.075s-1.383-.929-1.383-2.075.619-2.075,1.383-2.075S11.494,17.414,11.494,18.56Z" transform="translate(-1.234 -2.375)" fill="#633001"/><path d="M22.645,18.56c0,1.146-.619,2.075-1.383,2.075s-1.383-.929-1.383-2.075.619-2.075,1.383-2.075S22.645,17.414,22.645,18.56Z" transform="translate(-2.841 -2.375)" fill="#633001"/></g></g></svg>