<svg xmlns="http://www.w3.org/2000/svg" width="291" height="529" viewBox="0 0 291 529"><g transform="translate(-247 -2204)"><path d="M268,529H23A22.981,22.981,0,0,1,0,506V23A22.981,22.981,0,0,1,23,0H268a22.981,22.981,0,0,1,23,23V506a22.981,22.981,0,0,1-23,23ZM146.045,468.364a22.46,22.46,0,0,0-8.485,1.643,21.8,21.8,0,0,0-6.929,4.481,20.812,20.812,0,0,0-4.672,6.646,20.19,20.19,0,0,0,0,16.278,20.813,20.813,0,0,0,4.672,6.646,21.8,21.8,0,0,0,6.929,4.481,22.726,22.726,0,0,0,16.969,0,21.8,21.8,0,0,0,6.929-4.481,20.813,20.813,0,0,0,4.672-6.646,20.19,20.19,0,0,0,0-16.278,20.812,20.812,0,0,0-4.672-6.646,21.8,21.8,0,0,0-6.929-4.481A22.46,22.46,0,0,0,146.045,468.364Z" transform="translate(247 2204)" fill="#f4eace"/><line x2="53.19" transform="translate(366.394 2234.622)" fill="none" stroke="#fffbed" stroke-linecap="round" stroke-width="7"/></g></svg>