<svg xmlns="http://www.w3.org/2000/svg" width="102" height="102" viewBox="0 0 102 102"><g transform="translate(-632 -4015)"><path d="M51,0A51,51,0,1,1,0,51,51,51,0,0,1,51,0Z" transform="translate(632 4015)" fill="#fefae0"/><path d="M9.062,20.065,4.531,24.6,0,20.065l4.531-4.537ZM20,9.074l7.734,7.744,4.531-4.537L20,0,7.734,12.282l4.531,4.537Zm15.469,6.454-4.531,4.537L35.469,24.6,40,20.065ZM20,31.056l-7.734-7.744L7.734,27.849,20,40.13,32.266,27.849l-4.531-4.537ZM20,24.6l4.531-4.537L20,15.528l-4.531,4.537Z" transform="translate(663.116 4045.113)" fill="#f0b92a"/></g></svg>