<svg xmlns="http://www.w3.org/2000/svg" width="102" height="102" viewBox="0 0 102 102"><g transform="translate(-274.5 -4014.616)"><path d="M51,0A51,51,0,1,1,0,51,51,51,0,0,1,51,0Z" transform="translate(274.5 4014.616)" fill="#fefae0"/><g transform="translate(300.616 4042.123)"><g transform="translate(0 0)"><rect width="50" height="50" fill="none"/><path d="M17.583,24.987H12.359V18.718h5.224V13.493h6.269v5.224h5.224v6.269H23.852v5.224H17.583ZM20.718,2,4,8.269V21c0,10.553,7.126,20.4,16.718,22.8,9.592-2.4,16.718-12.246,16.718-22.8V8.269Z" transform="translate(4.359 2.026)" fill="#d1884f"/></g><circle cx="10" cy="10" r="10" transform="translate(15.5 14)" fill="#d1884f"/></g></g></svg>