<svg xmlns="http://www.w3.org/2000/svg" width="102" height="102" viewBox="0 0 102 102"><g transform="translate(-988 -4015)"><path d="M51,0A51,51,0,1,1,0,51,51,51,0,0,1,51,0Z" transform="translate(988 4015)" fill="#fefae0"/><g transform="translate(1018.116 4044.114)"><path d="M7.7,6.641a5.611,5.611,0,1,1,11.127-1.03v6.918q1.163-.082,2.361-.083,1.15,0,2.269.076V5.611a5.611,5.611,0,1,1,11.127,1.03L33.07,14.773c5.211,2.275,9.152,6.227,9.152,11.193v3c0,4.084-2.7,7.5-6.478,9.811A28.3,28.3,0,0,1,21.192,42.49,28.3,28.3,0,0,1,6.64,38.781C2.863,36.473.162,33.054.162,28.97v-3c0-4.94,3.9-8.876,9.068-11.156Zm23.42,9.2L32.9,6.326a3.895,3.895,0,1,0-7.723-.715v8.8q-.845-.108-1.717-.171-1.117-.08-2.269-.081-1.2,0-2.361.087-.871.065-1.717.176V5.611a3.895,3.895,0,1,0-7.723.715l1.783,9.547c-5.573,2.07-9.3,5.816-9.3,10.093v3c0,6.518,8.647,11.8,19.314,11.8s19.314-5.284,19.314-11.8v-3C40.505,21.667,36.745,17.905,31.124,15.841Z" transform="translate(-0.162)" fill="#633001" fill-rule="evenodd"/><path d="M40.082,22.56c0,6.518-8.647,11.8-19.314,11.8S1.455,29.078,1.455,22.56v-3H40.082Z" transform="translate(0.262 6.41)" fill="#fedc90"/><path d="M8.968,5.9a3.895,3.895,0,1,1,7.723-.715V14a31.683,31.683,0,0,1,8.063-.012v-8.8a3.895,3.895,0,1,1,7.723.715L30.7,15.418c5.621,2.064,9.381,5.826,9.381,10.125,0,6.518-8.647,11.8-19.314,11.8S1.455,32.061,1.455,25.542c0-4.277,3.723-8.023,9.3-10.093Z" transform="translate(0.262 0.424)" fill="#d1884f" fill-rule="evenodd"/><path d="M13.019,19.7c0,1.778-.961,3.219-2.146,3.219S8.727,21.482,8.727,19.7s.961-3.219,2.146-3.219S13.019,17.926,13.019,19.7Z" transform="translate(2.646 5.404)" fill="#633001"/><path d="M24.171,19.7c0,1.778-.961,3.219-2.146,3.219s-2.146-1.441-2.146-3.219.961-3.219,2.146-3.219S24.171,17.926,24.171,19.7Z" transform="translate(6.302 5.404)" fill="#633001"/></g></g></svg>