<?xml version="1.0" encoding="utf-8"?>
<!-- Generator: Adobe Illustrator 25.2.3, SVG Export Plug-In . SVG Version: 6.00 Build 0)  -->
<svg version="1.1" id="Layer_1" xmlns="http://www.w3.org/2000/svg" xmlns:xlink="http://www.w3.org/1999/xlink" x="0px" y="0px"
	 viewBox="0 0 300 299" style="enable-background:new 0 0 300 299;" xml:space="preserve">
<style type="text/css">
	.st0{fill:#FEFAE0;}
	.st1{fill:#E0D5B6;}
	.st2{fill-rule:evenodd;clip-rule:evenodd;fill:#E5661D;}
	.st3{fill-rule:evenodd;clip-rule:evenodd;fill:#883D12;}
	.st4{fill-rule:evenodd;clip-rule:evenodd;fill:#F6F4CE;}
	.st5{fill-rule:evenodd;clip-rule:evenodd;fill:#333333;}
	.st6{fill-rule:evenodd;clip-rule:evenodd;fill:#1D1D1D;}
	.st7{fill:none;stroke:#BCB191;stroke-width:2;stroke-linecap:round;stroke-dasharray:4;}
</style>
<g transform="translate(-851 -259)">
	<circle class="st0" cx="1001" cy="417" r="98"/>
	<circle class="st1" cx="910" cy="499" r="59"/>
	<circle class="st1" cx="1092" cy="499" r="59"/>
	<g transform="translate(5732.508 540.809)">
		<path class="st2" d="M-4822,10.2c29-0.1,52.5-23.5,52.5-52.5c-0.1-29-23.5-52.5-52.5-52.5c-29,0.1-52.5,23.5-52.5,52.5
			C-4874.5-13.3-4851,10.2-4822,10.2"/>
		<path class="st3" d="M-4843.4-27.3l0.1-0.3l-3.5-3.5l3.9-9.8l19.8-7.1l13.2,1.6l-10.1-10.1l25.2-1.2l24.5,24.5
			c-3.6,19.9-18.1,36-37.6,41.5L-4843.4-27.3"/>
		<path class="st4" d="M-4846.8-31c-1.8-1.8-3.4-3.8-4.6-6c-4.7-9.3-1.8-22.5,10.2-25c5.3-1.1,10.7,0.2,15,3.5
			c6.7,4.8,13.4,9.5,20.1,14.3c0.7,0.5,0.9,1.4,0.4,2.1c-0.8,1.4-2.1,2.3-3.7,2.6c-1.7,0.3-3.5-0.1-5-1.1l-8-4.6
			c-1.7-0.9-3.8-0.8-5.4,0.3L-4846.8-31L-4846.8-31z M-4800.5-29c3-2.1,6.5-5.1,7.9-8c4.7-9.3,1.8-22.5-10.2-25
			c-6.6-1.3-12.7,1.1-17.3,5.5c2.6,1.9,4.8,3.4,6.9,4.9l8.2,5.8c0.8,0.5,1.3,1.3,1.5,2.2c0.2,0.9,0,1.9-0.5,2.7
			c-0.6,0.9-1.3,1.7-2.2,2.3c-0.8,0.6-1.8,1-2.8,1.2c-1.1,0.2-2.2,0.2-3.2-0.1c-1.1-0.2-2.2-0.7-3.2-1.2l-8-4.6
			c-1-0.6-2.3-0.5-3.2,0.2l-16.4,11.8c-1.2,0.8-1.5,2.5-0.7,3.7c0.9,1.2,2.5,1.5,3.7,0.6c6.7-4.8,1.9-1.4,8.6-6.2
			c0.5-0.2,1,0,1.2,0.4c0.2,0.3,0.1,0.7-0.2,1c-6.7,4.8-1,0.7-7.7,5.5c-1.2,0.9-1.5,2.5-0.6,3.7c0,0,0,0,0,0
			c0.9,1.2,2.5,1.5,3.7,0.6c6.7-4.8,2.9-2.1,9.6-6.9c0.5-0.2,1,0,1.2,0.5c0.2,0.3,0.1,0.7-0.2,1c-6.7,4.8-1,0.7-7.7,5.5
			c-1.2,0.9-1.5,2.5-0.6,3.7c0,0,0,0,0,0c0.9,1.2,2.5,1.5,3.7,0.6c0,0,0,0,0,0l9.6-6.9c0.5-0.2,1,0,1.2,0.5c0.1,0.3,0.1,0.7-0.2,1
			l-7.7,5.5c-1.2,0.9-1.5,2.5-0.6,3.7c0.9,1.2,2.5,1.5,3.7,0.6C-4815.4-18.4-4807.9-23.7-4800.5-29"/>
	</g>
	<g transform="translate(6100.893 541.809)">
		<path class="st5" d="M-5009.2,9.5c28.8-0.1,52.1-23.4,52.1-52.1c-0.1-28.8-23.4-52.1-52.1-52.1c-28.8,0.1-52.1,23.4-52.1,52.1
			C-5061.3-13.9-5037.9,9.4-5009.2,9.5"/>
		<path class="st6" d="M-5031.2-8.1l4.8-7.6l-1.7-17.1l-5.3-5.9l-2-4.6l4.5,4.5l-0.4-11.9l2.9,2.9l0.5-4.2l3.2,3.2l0.2-1.7l2.8,2.8
			l0.1-0.2l8.9,8.9l0.1-16.6l-4.9-4.9l-0.4-14.9l3,3l1.1-6.8l4.1,4.1l0.9-6.1l4.3,4.3l0.5-2.5l45.9,45.9
			c-4.5,24.8-26.1,42.8-51.3,42.9c-1.6,0-3.1-0.1-4.7-0.2L-5031.2-8.1"/>
		<path class="st4" d="M-5030.8-50l1,6c0,0.2,0.2,0.3,0.4,0.3c0.2,0,0.3-0.2,0.3-0.3l-0.2-7c0-0.6,0.4-1,1-1c0.6,0,1,0.4,1,1
			l0.2,7.2c0,0.4,0.6,0.4,0.7,0l0.6-5.7c0-0.6,0.5-1,1.1-0.9c0.6,0,1,0.5,0.9,1.1c0,0,0,0,0,0.1l-0.6,5.4c0,0.2,0.2,0.3,0.3,0.3
			c0.1,0,0.3-0.1,0.3-0.2l0.8-3.2c0.1-0.5,0.6-0.9,1.1-0.9c0.5,0.1,0.9,0.6,0.9,1.1c0,0,0,0.1,0,0.1l-0.9,5.1
			c-0.1,0.5-0.1,0.9-0.1,1.4c0,2-0.2,4.2-1.3,5.8c-0.5,0.5-0.7,1.2-0.8,1.9v24.1c0,0.4-0.3,0.8-0.7,0.8c0,0-0.1,0-0.1,0h-4.6h-1
			c-0.6,0-0.9-0.3-0.8-0.8v-24c0.1-0.7-0.2-1.4-0.6-1.9l-1-1.2c-0.6-0.7-1.1-1.5-1.6-2.3l-2.6-4.8c-0.4-0.7,1.1-1.5,2.2-0.1l1.8,2.3
			c0.7,0.9,1.5,0.2,1.4-0.9l-0.9-8.2c0-0.6,0.4-1,0.9-1.1C-5031.4-50.9-5030.9-50.5-5030.8-50z M-5006.2-78.5l-1.4,8.5
			c-0.1,0.3-0.3,0.4-0.6,0.4c-0.2-0.1-0.4-0.2-0.4-0.5l0.3-10c0-0.8-0.6-1.4-1.4-1.4c-0.8,0-1.4,0.6-1.4,1.3l-0.3,10.2
			c0,0.5-0.9,0.5-0.9,0l-0.8-8.1c0-0.8-0.7-1.4-1.5-1.4c-0.8,0-1.4,0.7-1.4,1.5c0,0.1,0,0.1,0,0.2l0.8,7.7c0,0.3-0.2,0.5-0.5,0.5
			c-0.2,0-0.4-0.1-0.5-0.3l-1.1-4.5c-0.1-0.8-0.8-1.3-1.6-1.2c-0.8,0.1-1.3,0.8-1.2,1.6l0,0l1.2,7.2c0.1,0.7,0.2,1.3,0.2,2
			c0,2.8,0.3,6,1.9,8.2c0.6,0.7,1,1.7,1.1,2.7v45c-0.1,0.6,0.4,1.1,1,1.2c0.1,0,0.1,0,0.2,0h1.4h1.3h1.3h2.5h1.4
			c0.9,0,1.2-0.4,1.2-1.2v-45c-0.1-1,0.2-2,0.9-2.7l1.5-1.7c0.9-1,1.6-2.1,2.3-3.3l3.7-6.7c0.6-1-1.5-2.1-3.1-0.1l-2.5,3.2
			c-1,1.2-2.1,0.3-2-1.3l1.2-11.5c0.1-0.8-0.5-1.5-1.3-1.5C-5005.4-79.8-5006.1-79.2-5006.2-78.5L-5006.2-78.5z M-4994-60.4l1.1,7
			c0.1,0.2,0.3,0.3,0.5,0.3c0.2,0,0.3-0.2,0.3-0.4l-0.2-8.3c0-0.7,0.5-1.2,1.2-1.2c0.6,0,1.1,0.5,1.2,1.1l0.2,8.5
			c0,0.4,0.7,0.4,0.8,0l0.7-6.7c0-0.6,0.5-1.2,1.2-1.2s1.2,0.5,1.2,1.2c0,0.1,0,0.1,0,0.2l-0.6,6.4c0,0.2,0.2,0.4,0.4,0.4
			c0.2,0,0.3-0.1,0.4-0.3l0.9-3.7c0.1-0.6,0.6-1.1,1.3-1s1.1,0.6,1,1.3c0,0,0,0.1,0,0.1l-1,6c-0.1,0.5-0.1,1.1-0.1,1.6
			c0,2.3-0.3,5-1.6,6.8c-0.5,0.6-0.9,1.4-0.9,2.2v31.3c0,0.5-0.3,0.9-0.8,1c-0.1,0-0.1,0-0.2,0h-1.1h-3.2h-1.1h-1.1
			c-0.7,0-1-0.3-1-1v-31.2c0.1-0.8-0.2-1.6-0.7-2.2l-1.2-1.4c-0.7-0.9-1.3-1.8-1.9-2.8l-3.1-5.6c-0.5-0.9,1.3-1.7,2.5-0.1l2.1,2.7
			c0.8,1,1.8,0.2,1.6-1.1l-1-9.6c-0.1-0.6,0.4-1.2,1.1-1.3C-4994.6-61.4-4994.1-61-4994-60.4"/>
	</g>
	<g transform="translate(-0.5)">
		<line class="st7" x1="1001.5" y1="387.5" x2="938.5" y2="446.5"/>
		<line class="st7" x1="1001.5" y1="387.5" x2="1064.5" y2="446.5"/>
	</g>
</g>
</svg>
