<svg xmlns="http://www.w3.org/2000/svg" width="50" height="50" viewBox="0 0 50 50"><g transform="translate(-1245 -637)"><circle cx="25" cy="25" r="25" transform="translate(1245 637)" fill="#fefae0"/><g transform="translate(1256.282 652)"><path d="M98,149.768a1.347,1.347,0,0,0,1.051-.526l2.8-2.726-3.5-2.109" transform="translate(-89.399 -131.75)" fill="#e5661d"/><path d="M57.877,84.838,66.352,91.1c.967.534,1.665.257,1.906-.9l3.45-16.256c.353-1.416-.54-2.058-1.465-1.638L49.986,80.118c-1.383.555-1.374,1.326-.252,1.67l5.2,1.623,12.034-7.592c.568-.345,1.09-.159.662.22" transform="translate(-48.919 -72.18)" fill="#e5661d"/></g></g></svg>