<svg xmlns="http://www.w3.org/2000/svg" width="32" height="32" viewBox="0 0 32 32"><g transform="translate(-1200 -777)"><circle cx="16" cy="16" r="16" transform="translate(1200 777)" fill="#e5661d"/><g transform="translate(1206.103 786.486)"><path d="M98,148.5a1.029,1.029,0,0,0,.8-.4l2.141-2.082-2.671-1.611" transform="translate(-91.432 -134.742)" fill="#fefae0"/><path d="M55.76,81.846l6.472,4.781c.739.408,1.271.2,1.455-.686l2.634-12.414c.27-1.081-.412-1.572-1.119-1.251L49.734,78.241c-1.056.424-1.05,1.013-.192,1.275l3.97,1.239,9.19-5.8c.434-.263.832-.122.505.168" transform="translate(-48.919 -72.18)" fill="#fefae0"/></g></g></svg>